<svg width="32" height="39" viewBox="0 0 32 39" fill="none" xmlns="http://www.w3.org/2000/svg">
<path fill-rule="evenodd" clip-rule="evenodd" d="M16.6076 34.6526C16.3343 34.8563 16.0796 35.0411 15.8468 35.2068C15.5985 35.0396 15.3231 34.8472 15.0244 34.6303C13.6162 33.607 11.7899 32.1048 9.99121 30.2313C6.30191 26.3883 3.2 21.4827 3.2 16.25C3.2 9.0703 8.93075 3.25 16 3.25C23.0692 3.25 28.8 9.0703 28.8 16.25C28.8 21.4266 25.5614 26.3181 21.7372 30.2018C19.8818 32.0864 18.0147 33.6048 16.6076 34.6526ZM32 16.25C32 29.25 16 39 16 39C15.2 39 0 29.25 0 16.25C0 7.27536 7.16343 0 16 0C24.8365 0 32 7.27536 32 16.25ZM19.2 16.25C19.2 18.0449 17.7673 19.5 16 19.5C14.2327 19.5 12.8 18.0449 12.8 16.25C12.8 14.4551 14.2327 13 16 13C17.7673 13 19.2 14.4551 19.2 16.25ZM22.4 16.25C22.4 19.84 19.5347 22.75 16 22.75C12.4653 22.75 9.6 19.84 9.6 16.25C9.6 12.6602 12.4653 9.75 16 9.75C19.5347 9.75 22.4 12.6602 22.4 16.25Z" fill="#F7F5F2"/>
</svg>
