<svg width="33" height="33" viewBox="0 0 33 33" fill="none" xmlns="http://www.w3.org/2000/svg">
<path fill-rule="evenodd" clip-rule="evenodd" d="M16.25 0C7.27533 0 0 7.27533 0 16.25C0 18.915 0.642484 21.4331 1.78161 23.6549L0.0331094 30.9989C-0.0150055 31.2014 -0.0104857 31.4128 0.0462382 31.6131C0.102962 31.8133 0.210002 31.9957 0.357163 32.1428C0.504325 32.29 0.68671 32.397 0.886949 32.4538C1.08719 32.5105 1.29861 32.515 1.50109 32.4669L8.84508 30.7184C11.0669 31.8575 13.585 32.5 16.25 32.5C25.2247 32.5 32.5 25.2247 32.5 16.25C32.5 7.27533 25.2247 0 16.25 0ZM2.4375 16.25C2.4375 8.62164 8.62164 2.4375 16.25 2.4375C23.8784 2.4375 30.0625 8.62164 30.0625 16.25C30.0625 23.8784 23.8784 30.0625 16.25 30.0625C13.8361 30.0625 11.57 29.4444 9.59827 28.3585C9.33293 28.2124 9.02273 28.1704 8.72808 28.2405L2.86305 29.637L4.25953 23.7719C4.32967 23.4773 4.2876 23.1671 4.14152 22.9017C3.05561 20.9298 2.4375 18.6639 2.4375 16.25ZM11.7859 20.7141C14.2183 23.1463 17.4616 24.778 21.0795 25.1664C23.4715 25.4229 25.1875 23.4522 25.1875 21.4051V19.984C25.1875 19.156 24.9206 18.3499 24.4263 17.6856C23.932 17.0212 23.2366 16.5339 22.4435 16.2959L22.3303 16.262L22.2146 16.2392L20.5851 15.9183C20.0611 15.7827 19.5144 15.759 18.9807 15.8489C18.4469 15.9388 17.9381 16.1402 17.4874 16.4399C16.957 16.0221 16.4779 15.543 16.0601 15.0126C16.3599 14.5619 16.5614 14.053 16.6513 13.5192C16.7412 12.9853 16.7176 12.4386 16.5819 11.9145L16.2606 10.2852L16.2378 10.1695L16.2039 10.0563C15.966 9.26324 15.4787 8.56799 14.8144 8.07373C14.1501 7.57947 13.3442 7.31252 12.5162 7.3125H11.0947C9.0478 7.3125 7.07688 9.02809 7.33342 11.4203C7.7218 15.038 9.3533 18.2817 11.7859 20.7141ZM18.6215 18.6465C18.8019 18.4661 19.0277 18.338 19.2751 18.2757C19.5224 18.2133 19.782 18.2191 20.0263 18.2924L21.7433 18.6306C22.0343 18.718 22.2894 18.8969 22.4707 19.1407C22.6521 19.3845 22.75 19.6802 22.75 19.984V21.4051C22.75 22.1853 22.1154 22.826 21.3397 22.7427C19.4015 22.5356 17.5349 21.8947 15.8783 20.8674C15.0191 20.3351 14.2242 19.7052 13.5096 18.9904C12.7948 18.2758 12.1649 17.4809 11.6326 16.6217C10.6054 14.965 9.96447 13.0983 9.75731 11.1601C9.67403 10.3844 10.3147 9.75 11.0947 9.75H12.516C12.8197 9.75008 13.1154 9.84807 13.3591 10.0295C13.6028 10.2108 13.7815 10.4659 13.8688 10.7569L14.2074 12.4735C14.2807 12.7178 14.2865 12.9775 14.2242 13.2248C14.1618 13.4722 14.0337 13.6981 13.8533 13.8785L13.6258 14.106C13.4753 14.2559 13.367 14.4429 13.312 14.6482C13.2364 14.9331 13.2706 15.2415 13.4345 15.506C13.8806 16.2264 14.4085 16.8928 15.0077 17.4919C15.6069 18.0912 16.2733 18.6192 16.9938 19.0653C17.2583 19.229 17.5665 19.2634 17.8516 19.1878C18.0568 19.1327 18.2438 19.0245 18.3938 18.874L18.6215 18.6465Z" fill="#F7F5F2"/>
</svg>
